# Blender v2.79 (sub 0) OBJ File: ''
# www.blender.org
mtllib pyramid.mtl
o Pyramid_Cube.001
v -1.000000 -1.000000 1.000000
v 0.000000 1.000000 0.000000
v -1.000000 -1.000000 -1.000000
v 1.000000 -1.000000 1.000000
v 1.000000 -1.000000 -1.000000
vt 0.000000 0.000000
vt 0.500000 0.500000
vt 0.000000 1.000000
vt 1.000000 1.000000
vt 1.000000 0.000000
vt 1.000000 0.000000
vt 0.000000 1.000000
vt 0.000000 0.000000
vt 1.000000 1.000000
vn -0.8944 0.4472 0.0000
vn 0.0000 0.4472 -0.8944
vn 0.8944 0.4472 0.0000
vn 0.0000 0.4472 0.8944
vn 0.0000 -1.0000 0.0000

usemtl Material1
s off
f 1/1/1 2/2/1 3/3/1
f 3/3/2 2/2/2 5/4/2
f 5/4/3 2/2/3 4/5/3
f 4/5/4 2/2/4 1/1/4
f 5/6/5 1/7/5 3/8/5
f 5/6/5 4/9/5 1/7/5
