# Blender v2.79 (sub 0) OBJ File: ''
# www.blender.org
mtllib sphere.mtl
o Sphere
v 0.000000 0.707107 -0.707107
v 0.000000 0.382683 -0.923880
v 0.000000 -0.382684 -0.923880
v 0.000000 -0.923880 -0.382683
v 0.146447 0.923880 -0.353553
v 0.270598 0.707107 -0.653281
v 0.353553 0.382683 -0.853553
v 0.382683 -0.000000 -0.923880
v 0.353553 -0.382684 -0.853553
v 0.270598 -0.707107 -0.653281
v 0.146447 -0.923880 -0.353553
v 0.270598 0.923880 -0.270598
v 0.500000 0.707107 -0.500000
v 0.653281 0.382683 -0.653281
v 0.707107 -0.000000 -0.707107
v 0.653281 -0.382684 -0.653281
v 0.500000 -0.707107 -0.500000
v 0.270598 -0.923880 -0.270598
v 0.353553 0.923880 -0.146447
v 0.653281 0.707107 -0.270598
v 0.853553 0.382683 -0.353553
v 0.923879 -0.000000 -0.382683
v 0.853553 -0.382684 -0.353553
v 0.653281 -0.707107 -0.270598
v 0.353553 -0.923880 -0.146447
v 0.382683 0.923880 -0.000000
v 0.707107 0.707107 -0.000000
v 0.923879 0.382683 -0.000000
v 1.000000 -0.000000 -0.000000
v 0.923879 -0.382684 -0.000000
v 0.707107 -0.707107 -0.000000
v 0.382683 -0.923880 -0.000000
v 0.353553 0.923880 0.146446
v 0.653281 0.707107 0.270598
v 0.853553 0.382683 0.353553
v 0.923879 -0.000000 0.382683
v 0.853553 -0.382684 0.353553
v 0.653281 -0.707107 0.270598
v 0.353553 -0.923880 0.146446
v 0.270598 0.923880 0.270598
v 0.500000 0.707107 0.500000
v 0.653281 0.382683 0.653281
v 0.707106 -0.000000 0.707107
v 0.653281 -0.382684 0.653281
v 0.500000 -0.707107 0.500000
v 0.270598 -0.923880 0.270598
v 0.146446 0.923880 0.353553
v 0.270598 0.707107 0.653281
v 0.353553 0.382683 0.853553
v 0.382683 -0.000000 0.923879
v 0.353553 -0.382684 0.853553
v 0.270598 -0.707107 0.653281
v 0.146446 -0.923880 0.353553
v -0.000000 0.923880 0.382683
v -0.000000 0.707107 0.707106
v -0.000000 0.382683 0.923879
v -0.000000 -0.000000 1.000000
v -0.000000 -0.382684 0.923879
v -0.000000 -0.707107 0.707106
v -0.000000 -0.923880 0.382683
v -0.146447 0.923880 0.353553
v -0.270598 0.707107 0.653281
v -0.353554 0.382683 0.853553
v -0.382684 -0.000000 0.923879
v -0.353554 -0.382684 0.853553
v -0.270598 -0.707107 0.653281
v -0.146447 -0.923880 0.353553
v -0.270598 0.923880 0.270598
v -0.500000 0.707107 0.499999
v -0.653282 0.382683 0.653281
v -0.707107 -0.000000 0.707106
v -0.653282 -0.382684 0.653281
v -0.500000 -0.707107 0.499999
v -0.270598 -0.923880 0.270598
v -0.353553 0.923880 0.146446
v -0.653281 0.707107 0.270597
v -0.853553 0.382683 0.353553
v -0.923879 -0.000000 0.382683
v -0.853553 -0.382684 0.353553
v -0.653281 -0.707107 0.270597
v -0.353553 -0.923880 0.146446
v -0.382683 0.923880 -0.000000
v -0.707106 0.707107 -0.000000
v -0.923879 0.382683 -0.000001
v -1.000000 -0.000000 -0.000001
v -0.923879 -0.382684 -0.000001
v -0.707106 -0.707107 -0.000000
v -0.382683 -0.923880 -0.000000
v -0.353553 0.923880 -0.146447
v -0.653281 0.707107 -0.270598
v -0.853553 0.382683 -0.353554
v -0.923879 -0.000000 -0.382684
v -0.853553 -0.382684 -0.353554
v -0.653281 -0.707107 -0.270598
v -0.353553 -0.923880 -0.146447
v -0.270598 0.923880 -0.270598
v -0.499999 0.707107 -0.500000
v -0.653281 0.382683 -0.653282
v -0.707106 -0.000000 -0.707107
v -0.653281 -0.382684 -0.653282
v -0.499999 -0.707107 -0.500000
v -0.270598 -0.923880 -0.270598
v -0.146446 0.923880 -0.353553
v -0.270598 0.707107 -0.653281
v -0.353553 0.382683 -0.853553
v -0.382683 -0.000000 -0.923880
v -0.353553 -0.382684 -0.853553
v -0.270598 -0.707107 -0.653281
v -0.146446 -0.923880 -0.353553
v -0.000000 1.000000 -0.000000
v 0.000000 0.923880 -0.382683
v 0.000001 -0.000000 -1.000000
v 0.000000 -0.707107 -0.707106
v 0.000000 -1.000000 -0.000000
vt 0.500000 1.000000
vt 0.676777 0.926777
vt 0.500000 0.961940
vt 0.500000 0.853554
vt 0.676777 0.926777
vt 0.500000 0.961940
vt 0.500000 0.691342
vt 0.500000 0.500000
vt 0.573223 0.676777
vt 0.500000 0.500000
vt 0.500000 0.691342
vt 0.573223 0.676777
vt 0.500000 0.853553
vt 0.635299 0.826641
vt 0.691342 0.961940
vt 0.635299 0.826641
vt 0.635299 0.635299
vt 0.750000 0.750000
vt 0.853554 0.853554
vt 0.750000 0.750000
vt 0.826641 0.826641
vt 0.826641 0.826641
vt 0.635299 0.635299
vt 0.676777 0.573223
vt 0.826641 0.635299
vt 0.826641 0.635299
vt 0.676777 0.573223
vt 0.926777 0.676777
vt 0.926777 0.676777
vt 0.961940 0.691342
vt 0.853554 0.500000
vt 0.691342 0.500000
vt 0.961940 0.500000
vt 0.961940 0.500000
vt 0.691342 0.500000
vt 1.000000 0.500000
vt 0.853554 0.500000
vt 0.676777 0.426777
vt 0.676777 0.426777
vt 0.826641 0.364701
vt 0.961940 0.308658
vt 0.826641 0.364701
vt 0.926777 0.323223
vt 0.926777 0.323223
vt 0.750000 0.250000
vt 0.853553 0.146447
vt 0.635299 0.364701
vt 0.750000 0.250000
vt 0.635299 0.364701
vt 0.826641 0.173359
vt 0.826641 0.173359
vt 0.635299 0.173359
vt 0.573223 0.323223
vt 0.676777 0.073223
vt 0.676777 0.073223
vt 0.573223 0.323223
vt 0.691342 0.038060
vt 0.635299 0.173359
vt 0.500000 0.038060
vt 0.500000 0.038060
vt 0.500000 0.308658
vt 0.500000 0.308658
vt 0.500000 0.146447
vt 0.500000 0.000000
vt 0.500000 0.146447
vt 0.426777 0.323223
vt 0.364701 0.173359
vt 0.308658 0.038060
vt 0.426777 0.323223
vt 0.364701 0.173359
vt 0.323223 0.073223
vt 0.323223 0.073223
vt 0.173359 0.173359
vt 0.146446 0.146447
vt 0.250000 0.250000
vt 0.364701 0.364701
vt 0.173359 0.173359
vt 0.364701 0.364701
vt 0.250000 0.250000
vt 0.323223 0.426777
vt 0.073223 0.323223
vt 0.173359 0.364701
vt 0.073223 0.323223
vt 0.323223 0.426777
vt 0.173359 0.364701
vt 0.038060 0.308658
vt 0.038060 0.500000
vt 0.308658 0.500000
vt 0.308658 0.500000
vt 0.038060 0.500000
vt 0.146447 0.500000
vt 0.000000 0.500000
vt 0.146447 0.500000
vt 0.323223 0.573223
vt 0.073223 0.676777
vt 0.173359 0.635299
vt 0.073223 0.676777
vt 0.038060 0.691342
vt 0.323223 0.573223
vt 0.173359 0.635299
vt 0.364701 0.635299
vt 0.250000 0.750000
vt 0.364701 0.635299
vt 0.173359 0.826641
vt 0.173359 0.826641
vt 0.250000 0.750000
vt 0.146447 0.853554
vt 0.426777 0.676777
vt 0.323224 0.926777
vt 0.323224 0.926777
vt 0.426777 0.676777
vt 0.364701 0.826641
vt 0.308659 0.961940
vt 0.364701 0.826641
vn 0.1915 -0.1915 -0.9626
vn 0.1632 0.5481 -0.8203
vn 0.0388 0.9800 -0.1949
vn 0.0388 -0.9800 -0.1949
vn 0.1632 -0.5481 -0.8203
vn 0.1915 0.1915 -0.9626
vn 0.1098 0.8264 -0.5522
vn 0.1098 -0.8264 -0.5522
vn 0.1104 -0.9800 -0.1653
vn 0.4647 -0.5481 -0.6954
vn 0.5453 0.1915 -0.8161
vn 0.3128 0.8264 -0.4681
vn 0.3128 -0.8264 -0.4681
vn 0.5453 -0.1915 -0.8161
vn 0.4647 0.5481 -0.6954
vn 0.1104 0.9800 -0.1653
vn 0.4681 0.8264 -0.3128
vn 0.4681 -0.8264 -0.3128
vn 0.8161 -0.1915 -0.5453
vn 0.6954 0.5481 -0.4647
vn 0.1653 0.9800 -0.1104
vn 0.1653 -0.9800 -0.1104
vn 0.6954 -0.5481 -0.4647
vn 0.8161 0.1915 -0.5453
vn 0.5522 -0.8264 -0.1098
vn 0.9626 -0.1915 -0.1915
vn 0.8203 0.5481 -0.1632
vn 0.1949 0.9800 -0.0388
vn 0.1949 -0.9800 -0.0388
vn 0.8203 -0.5481 -0.1632
vn 0.9626 0.1915 -0.1915
vn 0.5522 0.8264 -0.1098
vn 0.1949 0.9800 0.0388
vn 0.1949 -0.9800 0.0388
vn 0.8203 -0.5481 0.1632
vn 0.9626 0.1915 0.1915
vn 0.5522 0.8264 0.1098
vn 0.5522 -0.8264 0.1098
vn 0.9626 -0.1915 0.1915
vn 0.8203 0.5481 0.1632
vn 0.6954 -0.5481 0.4647
vn 0.8161 0.1915 0.5453
vn 0.4681 0.8264 0.3128
vn 0.4681 -0.8264 0.3128
vn 0.8161 -0.1915 0.5453
vn 0.6954 0.5481 0.4647
vn 0.1653 0.9800 0.1104
vn 0.1653 -0.9800 0.1104
vn 0.3128 -0.8264 0.4681
vn 0.5453 -0.1915 0.8161
vn 0.4647 0.5481 0.6954
vn 0.1104 0.9800 0.1653
vn 0.1104 -0.9800 0.1653
vn 0.4647 -0.5481 0.6954
vn 0.5453 0.1915 0.8161
vn 0.3128 0.8264 0.4681
vn 0.1915 -0.1915 0.9626
vn 0.1632 0.5481 0.8203
vn 0.0388 0.9800 0.1949
vn 0.0388 -0.9800 0.1949
vn 0.1632 -0.5481 0.8203
vn 0.1915 0.1915 0.9626
vn 0.1098 0.8264 0.5522
vn 0.1098 -0.8264 0.5522
vn -0.0388 -0.9800 0.1949
vn -0.1632 -0.5481 0.8203
vn -0.1915 0.1915 0.9626
vn -0.1098 0.8264 0.5522
vn -0.1098 -0.8264 0.5522
vn -0.1915 -0.1915 0.9626
vn -0.1632 0.5481 0.8203
vn -0.0388 0.9800 0.1949
vn -0.5453 0.1915 0.8161
vn -0.3128 0.8264 0.4681
vn -0.3128 -0.8264 0.4681
vn -0.5453 -0.1915 0.8161
vn -0.4647 0.5481 0.6954
vn -0.1104 0.9800 0.1653
vn -0.1104 -0.9800 0.1653
vn -0.4647 -0.5481 0.6954
vn -0.4681 -0.8264 0.3128
vn -0.8161 -0.1915 0.5453
vn -0.6954 0.5481 0.4647
vn -0.1653 0.9800 0.1104
vn -0.1653 -0.9800 0.1104
vn -0.6954 -0.5481 0.4647
vn -0.8161 0.1915 0.5453
vn -0.4681 0.8264 0.3128
vn -0.8203 0.5481 0.1632
vn -0.1949 0.9800 0.0388
vn -0.1949 -0.9800 0.0388
vn -0.8203 -0.5481 0.1632
vn -0.9626 0.1915 0.1915
vn -0.5522 0.8264 0.1098
vn -0.5522 -0.8264 0.1098
vn -0.9626 -0.1915 0.1915
vn -0.1949 -0.9800 -0.0388
vn -0.8203 -0.5481 -0.1632
vn -0.9626 0.1915 -0.1915
vn -0.5522 0.8264 -0.1098
vn -0.5522 -0.8264 -0.1098
vn -0.9626 -0.1915 -0.1915
vn -0.8203 0.5481 -0.1632
vn -0.1949 0.9800 -0.0388
vn -0.4681 0.8264 -0.3128
vn -0.4681 -0.8264 -0.3128
vn -0.8161 -0.1915 -0.5453
vn -0.6954 0.5481 -0.4647
vn -0.1653 0.9800 -0.1104
vn -0.1653 -0.9800 -0.1104
vn -0.6954 -0.5481 -0.4647
vn -0.8161 0.1915 -0.5453
vn -0.3128 -0.8264 -0.4681
vn -0.5453 -0.1915 -0.8161
vn -0.4647 0.5481 -0.6954
vn -0.1104 0.9800 -0.1653
vn -0.1104 -0.9800 -0.1653
vn -0.4647 -0.5481 -0.6954
vn -0.5453 0.1915 -0.8161
vn -0.3128 0.8264 -0.4681
vn -0.0388 0.9800 -0.1949
vn -0.0388 -0.9800 -0.1949
vn -0.1632 -0.5481 -0.8203
vn -0.1915 0.1915 -0.9626
vn -0.1098 0.8264 -0.5522
vn -0.1098 -0.8264 -0.5522
vn -0.1915 -0.1915 -0.9626
vn -0.1632 0.5481 -0.8203
usemtl Material1
s off
f 112/1/1 9/2/1 3/3/1
f 1/4/2 7/5/2 2/6/2
f 111/7/3 110/8/3 5/9/3
f 114/10/4 4/11/4 11/12/4
f 113/13/5 9/2/5 10/14/5
f 112/1/6 7/5/6 8/15/6
f 111/7/7 6/16/7 1/4/7
f 113/13/8 11/12/8 4/11/8
f 114/10/9 11/12/9 18/17/9
f 9/2/10 17/18/10 10/14/10
f 7/5/11 15/19/11 8/15/11
f 5/9/12 13/20/12 6/16/12
f 10/14/13 18/17/13 11/12/13
f 8/15/14 16/21/14 9/2/14
f 6/16/15 14/22/15 7/5/15
f 5/9/16 110/8/16 12/23/16
f 13/20/17 19/24/17 20/25/17
f 18/17/18 24/26/18 25/27/18
f 15/19/19 23/28/19 16/21/19
f 13/20/20 21/29/20 14/22/20
f 12/23/21 110/8/21 19/24/21
f 114/10/22 18/17/22 25/27/22
f 16/21/23 24/26/23 17/18/23
f 15/19/24 21/29/24 22/30/24
f 25/27/25 31/31/25 32/32/25
f 22/30/26 30/33/26 23/28/26
f 20/25/27 28/34/27 21/29/27
f 19/24/28 110/8/28 26/35/28
f 114/10/29 25/27/29 32/32/29
f 23/28/30 31/31/30 24/26/30
f 21/29/31 29/36/31 22/30/31
f 20/25/32 26/35/32 27/37/32
f 26/35/33 110/8/33 33/38/33
f 114/10/34 32/32/34 39/39/34
f 30/33/35 38/40/35 31/31/35
f 28/34/36 36/41/36 29/36/36
f 27/37/37 33/38/37 34/42/37
f 31/31/38 39/39/38 32/32/38
f 29/36/39 37/43/39 30/33/39
f 28/34/40 34/42/40 35/44/40
f 37/43/41 45/45/41 38/40/41
f 35/44/42 43/46/42 36/41/42
f 34/42/43 40/47/43 41/48/43
f 38/40/44 46/49/44 39/39/44
f 36/41/45 44/50/45 37/43/45
f 34/42/46 42/51/46 35/44/46
f 33/38/47 110/8/47 40/47/47
f 114/10/48 39/39/48 46/49/48
f 46/49/49 52/52/49 53/53/49
f 43/46/50 51/54/50 44/50/50
f 41/48/51 49/55/51 42/51/51
f 40/47/52 110/8/52 47/56/52
f 114/10/53 46/49/53 53/53/53
f 44/50/54 52/52/54 45/45/54
f 43/46/55 49/55/55 50/57/55
f 41/48/56 47/56/56 48/58/56
f 50/57/57 58/59/57 51/54/57
f 48/58/58 56/60/58 49/55/58
f 47/56/59 110/8/59 54/61/59
f 114/10/60 53/53/60 60/62/60
f 51/54/61 59/63/61 52/52/61
f 49/55/62 57/64/62 50/57/62
f 48/58/63 54/61/63 55/65/63
f 53/53/64 59/63/64 60/62/64
f 114/10/65 60/62/65 67/66/65
f 58/59/66 66/67/66 59/63/66
f 56/60/67 64/68/67 57/64/67
f 55/65/68 61/69/68 62/70/68
f 60/62/69 66/67/69 67/66/69
f 57/64/70 65/71/70 58/59/70
f 55/65/71 63/72/71 56/60/71
f 54/61/72 110/8/72 61/69/72
f 64/68/73 70/73/73 71/74/73
f 61/69/74 69/75/74 62/70/74
f 66/67/75 74/76/75 67/66/75
f 64/68/76 72/77/76 65/71/76
f 62/70/77 70/73/77 63/72/77
f 61/69/78 110/8/78 68/78/78
f 114/10/79 67/66/79 74/76/79
f 66/67/80 72/77/80 73/79/80
f 73/79/81 81/80/81 74/76/81
f 71/74/82 79/81/82 72/77/82
f 70/73/83 76/82/83 77/83/83
f 68/78/84 110/8/84 75/84/84
f 114/10/85 74/76/85 81/80/85
f 72/77/86 80/85/86 73/79/86
f 70/73/87 78/86/87 71/74/87
f 69/75/88 75/84/88 76/82/88
f 76/82/89 84/87/89 77/83/89
f 75/84/90 110/8/90 82/88/90
f 114/10/91 81/80/91 88/89/91
f 80/85/92 86/90/92 87/91/92
f 77/83/93 85/92/93 78/86/93
f 76/82/94 82/88/94 83/93/94
f 81/80/95 87/91/95 88/89/95
f 78/86/96 86/90/96 79/81/96
f 114/10/97 88/89/97 95/94/97
f 87/91/98 93/95/98 94/96/98
f 85/92/99 91/97/99 92/98/99
f 83/93/100 89/99/100 90/100/100
f 87/91/101 95/94/101 88/89/101
f 85/92/102 93/95/102 86/90/102
f 83/93/103 91/97/103 84/87/103
f 82/88/104 110/8/104 89/99/104
f 90/100/105 96/101/105 97/102/105
f 94/96/106 102/103/106 95/94/106
f 92/98/107 100/104/107 93/95/107
f 90/100/108 98/105/108 91/97/108
f 89/99/109 110/8/109 96/101/109
f 114/10/110 95/94/110 102/103/110
f 93/95/111 101/106/111 94/96/111
f 92/98/112 98/105/112 99/107/112
f 101/106/113 109/108/113 102/103/113
f 99/107/114 107/109/114 100/104/114
f 97/102/115 105/110/115 98/105/115
f 96/101/116 110/8/116 103/111/116
f 114/10/117 102/103/117 109/108/117
f 100/104/118 108/112/118 101/106/118
f 98/105/119 106/113/119 99/107/119
f 97/102/120 103/111/120 104/114/120
f 103/111/121 110/8/121 111/7/121
f 114/10/122 109/108/122 4/11/122
f 108/112/123 3/3/123 113/13/123
f 106/113/124 2/6/124 112/1/124
f 103/111/125 1/4/125 104/114/125
f 108/112/126 4/11/126 109/108/126
f 106/113/127 3/3/127 107/109/127
f 105/110/128 1/4/128 2/6/128
f 112/1/1 8/15/1 9/2/1
f 1/4/2 6/16/2 7/5/2
f 113/13/5 3/3/5 9/2/5
f 112/1/6 2/6/6 7/5/6
f 111/7/7 5/9/7 6/16/7
f 113/13/8 10/14/8 11/12/8
f 9/2/10 16/21/10 17/18/10
f 7/5/11 14/22/11 15/19/11
f 5/9/12 12/23/12 13/20/12
f 10/14/13 17/18/13 18/17/13
f 8/15/14 15/19/14 16/21/14
f 6/16/15 13/20/15 14/22/15
f 13/20/17 12/23/17 19/24/17
f 18/17/18 17/18/18 24/26/18
f 15/19/19 22/30/19 23/28/19
f 13/20/20 20/25/20 21/29/20
f 16/21/23 23/28/23 24/26/23
f 15/19/24 14/22/24 21/29/24
f 25/27/25 24/26/25 31/31/25
f 22/30/26 29/36/26 30/33/26
f 20/25/27 27/37/27 28/34/27
f 23/28/30 30/33/30 31/31/30
f 21/29/31 28/34/31 29/36/31
f 20/25/32 19/24/32 26/35/32
f 30/33/35 37/43/35 38/40/35
f 28/34/36 35/44/36 36/41/36
f 27/37/37 26/35/37 33/38/37
f 31/31/38 38/40/38 39/39/38
f 29/36/39 36/41/39 37/43/39
f 28/34/40 27/37/40 34/42/40
f 37/43/41 44/50/41 45/45/41
f 35/44/42 42/51/42 43/46/42
f 34/42/43 33/38/43 40/47/43
f 38/40/44 45/45/44 46/49/44
f 36/41/45 43/46/45 44/50/45
f 34/42/46 41/48/46 42/51/46
f 46/49/49 45/45/49 52/52/49
f 43/46/50 50/57/50 51/54/50
f 41/48/51 48/58/51 49/55/51
f 44/50/54 51/54/54 52/52/54
f 43/46/55 42/51/55 49/55/55
f 41/48/56 40/47/56 47/56/56
f 50/57/57 57/64/57 58/59/57
f 48/58/58 55/65/58 56/60/58
f 51/54/61 58/59/61 59/63/61
f 49/55/62 56/60/62 57/64/62
f 48/58/63 47/56/63 54/61/63
f 53/53/64 52/52/64 59/63/64
f 58/59/66 65/71/66 66/67/66
f 56/60/67 63/72/67 64/68/67
f 55/65/68 54/61/68 61/69/68
f 60/62/69 59/63/69 66/67/69
f 57/64/70 64/68/70 65/71/70
f 55/65/71 62/70/71 63/72/71
f 64/68/73 63/72/73 70/73/73
f 61/69/74 68/78/74 69/75/74
f 66/67/75 73/79/75 74/76/75
f 64/68/76 71/74/76 72/77/76
f 62/70/77 69/75/77 70/73/77
f 66/67/80 65/71/80 72/77/80
f 73/79/81 80/85/81 81/80/81
f 71/74/82 78/86/82 79/81/82
f 70/73/83 69/75/83 76/82/83
f 72/77/86 79/81/86 80/85/86
f 70/73/87 77/83/87 78/86/87
f 69/75/88 68/78/88 75/84/88
f 76/82/89 83/93/89 84/87/89
f 80/85/92 79/81/92 86/90/92
f 77/83/93 84/87/93 85/92/93
f 76/82/94 75/84/94 82/88/94
f 81/80/95 80/85/95 87/91/95
f 78/86/96 85/92/96 86/90/96
f 87/91/98 86/90/98 93/95/98
f 85/92/99 84/87/99 91/97/99
f 83/93/100 82/88/100 89/99/100
f 87/91/101 94/96/101 95/94/101
f 85/92/102 92/98/102 93/95/102
f 83/93/103 90/100/103 91/97/103
f 90/100/105 89/99/105 96/101/105
f 94/96/106 101/106/106 102/103/106
f 92/98/107 99/107/107 100/104/107
f 90/100/108 97/102/108 98/105/108
f 93/95/111 100/104/111 101/106/111
f 92/98/112 91/97/112 98/105/112
f 101/106/113 108/112/113 109/108/113
f 99/107/114 106/113/114 107/109/114
f 97/102/115 104/114/115 105/110/115
f 100/104/118 107/109/118 108/112/118
f 98/105/119 105/110/119 106/113/119
f 97/102/120 96/101/120 103/111/120
f 108/112/123 107/109/123 3/3/123
f 106/113/124 105/110/124 2/6/124
f 103/111/125 111/7/125 1/4/125
f 108/112/126 113/13/126 4/11/126
f 106/113/127 112/1/127 3/3/127
f 105/110/128 104/114/128 1/4/128
